<?xml version="1.0" encoding="UTF-8"?>
<svg width="264px" height="102px" viewBox="0 0 264 102" version="1.1" xmlns="http://www.w3.org/2000/svg" xmlns:xlink="http://www.w3.org/1999/xlink">
    <!-- Generator: Sketch 52.6 (67491) - http://www.bohemiancoding.com/sketch -->
    <title>Group 2</title>
    <desc>Created with Sketch.</desc>
    <g id="Design-Copy" stroke="none" stroke-width="1" fill="none" fill-rule="evenodd">
        <g id="Logo" transform="translate(-60.000000, -39.000000)" fill-rule="nonzero" stroke="#C64483">
            <g id="Group-2" transform="translate(60.000000, 40.000000)">
                <path d="M10,4.97379915e-14 C9.43362157,35.8929591 9.43362157,57.2383847 10,64.0362768 C10.8495676,74.233115 10.2635951,85.5205498 18.0211843,92.3124423 C25.7787734,99.1043348 43.8780573,99.1043348 45.3710088,92.3124423" id="Path" stroke-width="7"></path>
                <path d="M-1.95399252e-14,43.7368728 L20,43.7368728" id="Path-2" stroke-width="7"></path>
                <path d="M29.4450261,40 C29.0494473,53.3764821 29.0494473,63.3855967 29.4450261,70.0273438 C30.0383943,79.9899644 35.9966924,80 40.4922492,80 C44.987806,80 50.8193289,76.6692088 51,70.0273438 C51.1806711,63.3854787 51,63.3854787 51,60.0647231 C51,55.6055767 51,48.9173357 51,40 M51,70 C51.1258535,76.6666667 53.4541838,81.8658783 60.0943902,80" id="Shape" stroke-width="7"></path>
                <path d="M85,42.9947913 C70.8641795,42.2222933 63.7962692,48.3906962 63.7962692,61.5 C63.7962692,74.6093038 70.8641795,80.7777067 85,80.0052087" id="Path-4" stroke-width="7"></path>
                <polyline id="Path-5" stroke-width="7" points="92.7981271 3 92.7981271 63 92.7981271 83"></polyline>
                <polyline id="Path-6" stroke-width="7" points="110.029037 41.5129598 94.5215196 57.4522343 115 81.3912045"></polyline>
                <path d="M116,43.7368728 L136,43.7368728" id="Path-2" stroke-width="7"></path>
                <g id="Group" transform="translate(180.000000, 40.000000)" stroke-width="7">
                    <path d="M0.82889053,0 C0.273617547,20.0182292 -1.37720931,40 10.1024466,40 C21.5821025,40 21,23.3854787 21,20.0647231 C21,15.6055767 21,8.91733569 21,0" id="Shape"></path>
                </g>
                <g id="Group" transform="translate(211.000000, 60.000000) scale(-1, 1) translate(-211.000000, -60.000000) translate(200.000000, 40.000000)" stroke-width="7">
                    <path d="M0.82889053,0 C0.273617547,20.0182292 -1.37720931,40 10.1024466,40 C21.5821025,40 21,23.3854787 21,20.0647231 C21,15.6055767 21,8.91733569 21,0" id="Shape"></path>
                </g>
                <path d="M157,42.999038 C154.969359,42.999038 144,41.8737375 144,61.5332692 C144,81.1928009 155.610628,80.0011287 157,80.0011287 C158.389372,80.0011287 170,80.0666254 170,61.5011123 C170,42.9355993 159.030641,42.999038 157,42.999038 Z" id="Path-4" stroke-width="7"></path>
                <path d="M230.11267,43 C232.855876,43.718233 234.573977,47.0367127 235.266975,52.9554393 C235.727681,46.3184798 239.965028,43 247.979017,43 C260,43 260,51.3828055 260,52.9554393 C260,55.1645321 260,65.1796094 260,83.0006711" id="Path-7" stroke-width="7"></path>
                <path d="M235.317187,52.5 L235.317187,83" id="Path-8" stroke-width="7"></path>
                <path d="M47.4136122,87.0197507 L43.2380436,91.0810041 C44.7559154,92.5478423 45.8684442,93.2377541 46.4740381,93.1782807 C47.1381635,93.1130591 47.5996176,92.7338958 47.9049388,91.972847 L47.9732955,91.8024598 L48.1356696,91.7167913 C48.8531845,91.3382306 49.2037772,90.7983653 49.2324684,90.041062 C49.2588343,89.345134 48.6629824,88.3201115 47.4136122,87.0197507 Z" id="Rectangle" fill="#C64483" transform="translate(46.128347, 89.998372) rotate(-123.000000) translate(-46.128347, -89.998372) "></path>
                <path d="M127,4.97379915e-14 C126.433622,35.8929591 126.433622,57.2383847 127,64.0362768 C127.849568,74.233115 127.263595,85.5205498 135.021184,92.3124423 C142.778773,99.1043348 160.878057,99.1043348 162.371009,92.3124423" id="Path" stroke-width="7"></path>
                <path d="M117,43.7368728 L137,43.7368728" id="Path-2" stroke-width="7"></path>
                <path d="M164.413612,87.0197507 L160.238044,91.0810041 C161.755915,92.5478423 162.868444,93.2377541 163.474038,93.1782807 C164.138164,93.1130591 164.599618,92.7338958 164.904939,91.972847 L164.973296,91.8024598 L165.13567,91.7167913 C165.853185,91.3382306 166.203777,90.7983653 166.232468,90.041062 C166.258834,89.345134 165.662982,88.3201115 164.413612,87.0197507 Z" id="Rectangle" fill="#C64483" transform="translate(163.128347, 89.998372) rotate(-123.000000) translate(-163.128347, -89.998372) "></path>
            </g>
        </g>
    </g>
</svg>